# xmcd
#
# Track frame offsets: 
#        150
#        26812
#        53237
#        87287
#        108650
#        135812
#        158150
#
# Disc length: 2661 seconds
#
# Revision: 6
# Processed by: cddbd v1.5.2PL0 Copyright (c) Steve Scherf et al.
# Submitted via: ExactAudioCopy v1.0b3
#
DISCID=520a6307
DTITLE=朱哲琴 - 阿姐鼓
DYEAR=1996
DGENRE=Folk
TTITLE0=没有阴影的家园
TTITLE1=阿姐鼓
TTITLE2=天唱
TTITLE3=笛威辛亢 纽威辛亢
TTITLE4=羚羊过山岗
TTITLE5=卓玛的卓玛
TTITLE6=转经
EXTD=YEAR: 1996
EXTT0=
EXTT1=
EXTT2=
EXTT3=
EXTT4=
EXTT5=
EXTT6=
PLAYORDER=
